<svg width="16" height="14" viewBox="0 0 16 14" version="1.1" xmlns="http://www.w3.org/2000/svg" xmlns:xlink="http://www.w3.org/1999/xlink">
<title>Fill 6</title>
<desc>Created using Figma</desc>
<g id="Canvas" transform="translate(-302 -2042)">
<g id="Fill 6">
<use xlink:href="#path0_fill" transform="translate(302 2042)" fill="#FFFFFF"/>
</g>
</g>
<defs>
<path id="path0_fill" fill-rule="evenodd" d="M 15.5587 0.246496C 14.9239 0.631832 14.2224 0.912076 13.4727 1.06202C 12.8754 0.408405 12.0219 0 11.0769 0C 9.26559 0 7.79558 1.50717 7.79558 3.36593C 7.79558 3.62994 7.82378 3.88583 7.88017 4.13233C 5.15206 3.99178 2.73367 2.65335 1.11372 0.614317C 0.830908 1.11329 0.669426 1.69215 0.669426 2.3086C 0.669426 3.47572 1.24871 4.50613 2.1296 5.10976C 1.59261 5.09353 1.08552 4.94059 0.642085 4.69025L 0.642085 4.73126C 0.642085 6.36275 1.77374 7.72381 3.27664 8.03183C 3.00152 8.11086 2.71102 8.15016 2.41156 8.15016C 2.20009 8.15016 1.99375 8.13008 1.79339 8.09078C 2.21163 9.4275 3.42317 10.4011 4.85985 10.4271C 3.73674 11.3303 2.32056 11.8685 0.783061 11.8685C 0.518196 11.8685 0.256321 11.8531 0 11.8224C 1.45249 12.7759 3.17881 13.3334 5.03159 13.3334C 11.0705 13.3334 14.3715 8.20527 14.3715 3.75682C 14.3715 3.61028 14.3689 3.46418 14.363 3.32064C 15.0046 2.84559 15.5617 2.25349 16 1.57851C 15.4122 1.84594 14.7791 2.02707 14.1152 2.10824C 14.7932 1.69215 15.3135 1.03255 15.5587 0.246496Z"/>
</defs>
</svg>
