<svg width="36" height="35" viewBox="0 0 36 35" version="1.1" xmlns="http://www.w3.org/2000/svg" xmlns:xlink="http://www.w3.org/1999/xlink">
<title>Fill 1</title>
<desc>Created using Figma</desc>
<g id="Canvas" transform="translate(-292 -2336)">
<g id="Fill 1">
<use xlink:href="#path0_fill" transform="translate(292.001 2336)" fill="#0D1110"/>
</g>
</g>
<defs>
<path id="path0_fill" fill-rule="evenodd" d="M 17.7687 0C 7.956 0 0 7.956 0 17.7709C 0 25.6222 5.09127 32.2822 12.1527 34.6331C 13.0418 34.7956 13.3658 34.2469 13.3658 33.7756C 13.3658 33.3545 13.3505 32.2364 13.3418 30.7538C 8.39891 31.8273 7.356 28.3713 7.356 28.3713C 6.54764 26.3193 5.38255 25.7716 5.38255 25.7716C 3.76909 24.6698 5.50473 24.6916 5.50473 24.6916C 7.28836 24.8171 8.22655 26.5233 8.22655 26.5233C 9.81164 29.2385 12.3862 28.4542 13.3985 28.0004C 13.56 26.8516 14.0182 26.0684 14.5265 25.6244C 10.5807 25.176 6.432 23.6509 6.432 16.8415C 6.432 14.9018 7.12473 13.3156 8.26145 12.0731C 8.07818 11.6236 7.46836 9.81709 8.43491 7.37018C 8.43491 7.37018 9.92727 6.89236 13.3222 9.192C 14.7393 8.79709 16.26 8.60073 17.7709 8.59418C 19.2796 8.60073 20.8004 8.79709 22.2196 9.192C 25.6124 6.89236 27.1015 7.37018 27.1015 7.37018C 28.0713 9.81709 27.4615 11.6236 27.2782 12.0731C 28.4171 13.3156 29.1055 14.9018 29.1055 16.8415C 29.1055 23.6684 24.9502 25.1705 20.9913 25.6102C 21.6295 26.1589 22.1978 27.2433 22.1978 28.9015C 22.1978 31.2764 22.176 33.1931 22.176 33.7756C 22.176 34.2513 22.4956 34.8044 23.3978 34.6309C 30.4538 32.2756 35.5407 25.62 35.5407 17.7709C 35.5407 7.956 27.5836 0 17.7687 0Z"/>
</defs>
</svg>
